<svg width="288" height="40" viewBox="0 0 288 40" fill="none" xmlns="http://www.w3.org/2000/svg">
<path d="M0.160511 39V2.63636H24.2372V8.97514H7.84872V17.6399H22.6392V23.9787H7.84872V39H0.160511ZM28.8271 39V11.7273H36.1602V16.4858H36.4442C36.9414 14.7931 37.7759 13.5147 38.9478 12.6506C40.1197 11.7746 41.4691 11.3366 42.9961 11.3366C43.3749 11.3366 43.7833 11.3603 44.2212 11.4077C44.6592 11.455 45.0439 11.5201 45.3754 11.603V18.3146C45.0202 18.2081 44.529 18.1134 43.9016 18.0305C43.2743 17.9477 42.7002 17.9062 42.1793 17.9062C41.0666 17.9062 40.0723 18.1489 39.1964 18.6342C38.3323 19.1077 37.6457 19.7706 37.1367 20.6229C36.6396 21.4751 36.391 22.4576 36.391 23.5703V39H28.8271ZM49.286 39V11.7273H56.85V39H49.286ZM53.0858 8.21165C51.9612 8.21165 50.9965 7.83878 50.1916 7.09304C49.3985 6.33546 49.002 5.42992 49.002 4.37642C49.002 3.33475 49.3985 2.44105 50.1916 1.69531C50.9965 0.937735 51.9612 0.558947 53.0858 0.558947C54.2103 0.558947 55.1691 0.937735 55.9622 1.69531C56.7671 2.44105 57.1696 3.33475 57.1696 4.37642C57.1696 5.42992 56.7671 6.33546 55.9622 7.09304C55.1691 7.83878 54.2103 8.21165 53.0858 8.21165ZM75.3381 39.5327C72.5327 39.5327 70.1179 38.9645 68.0938 37.8281C66.0814 36.6799 64.5308 35.0582 63.4418 32.9631C62.3527 30.8561 61.8082 28.3643 61.8082 25.4879C61.8082 22.6825 62.3527 20.2204 63.4418 18.1016C64.5308 15.9827 66.0637 14.3314 68.0405 13.1477C70.0291 11.964 72.361 11.3722 75.0362 11.3722C76.8355 11.3722 78.5104 11.6622 80.0611 12.2422C81.6236 12.8104 82.9848 13.6686 84.1449 14.8168C85.3168 15.965 86.2282 17.4091 86.8793 19.1491C87.5303 20.8774 87.8558 22.9015 87.8558 25.2216V27.299H64.8267V22.6115H80.7358C80.7358 21.5225 80.4991 20.5578 80.0256 19.7173C79.5521 18.8769 78.8951 18.2199 78.0547 17.7464C77.2261 17.2611 76.2614 17.0185 75.1605 17.0185C74.0123 17.0185 72.9943 17.2848 72.1065 17.8175C71.2306 18.3383 70.544 19.0426 70.0469 19.9304C69.5497 20.8063 69.2952 21.7829 69.2834 22.8601V27.3168C69.2834 28.6662 69.532 29.8321 70.0291 30.8146C70.5381 31.7971 71.2543 32.5547 72.1776 33.0874C73.1009 33.62 74.1958 33.8864 75.4624 33.8864C76.3028 33.8864 77.0722 33.768 77.7706 33.5312C78.469 33.2945 79.0668 32.9394 79.5639 32.4659C80.0611 31.9924 80.4399 31.4124 80.7003 30.7259L87.696 31.1875C87.3409 32.8684 86.6129 34.3362 85.5121 35.5909C84.4231 36.8338 83.0144 37.8045 81.2862 38.5028C79.5698 39.1894 77.5871 39.5327 75.3381 39.5327ZM100.356 23.233V39H92.7919V11.7273H100.001V16.5391H100.32C100.924 14.9529 101.936 13.6982 103.357 12.7749C104.777 11.8397 106.499 11.3722 108.523 11.3722C110.417 11.3722 112.069 11.7865 113.477 12.6151C114.886 13.4437 115.981 14.6274 116.762 16.1662C117.543 17.6932 117.934 19.5161 117.934 21.6349V39H110.37V22.9844C110.382 21.3153 109.956 20.0133 109.092 19.0781C108.228 18.1312 107.038 17.6577 105.523 17.6577C104.505 17.6577 103.605 17.8767 102.824 18.3146C102.054 18.7526 101.451 19.3918 101.013 20.2322C100.587 21.0608 100.368 22.0611 100.356 23.233ZM133.945 39.4439C131.874 39.4439 129.997 38.9112 128.317 37.8459C126.648 36.7687 125.322 35.1884 124.339 33.1051C123.369 31.0099 122.883 28.4413 122.883 25.3991C122.883 22.2741 123.386 19.6759 124.393 17.6044C125.399 15.5211 126.736 13.9645 128.405 12.9347C130.086 11.893 131.927 11.3722 133.927 11.3722C135.454 11.3722 136.727 11.6326 137.745 12.1534C138.775 12.6624 139.603 13.3016 140.231 14.071C140.87 14.8286 141.355 15.5743 141.687 16.3082H141.917V2.63636H149.464V39H142.006V34.6321H141.687C141.331 35.3897 140.828 36.1413 140.177 36.8871C139.538 37.621 138.704 38.2306 137.674 38.7159C136.656 39.2012 135.413 39.4439 133.945 39.4439ZM136.342 33.4247C137.561 33.4247 138.591 33.0933 139.432 32.4304C140.284 31.7557 140.935 30.8146 141.385 29.6072C141.846 28.3999 142.077 26.9853 142.077 25.3636C142.077 23.742 141.852 22.3333 141.403 21.1378C140.953 19.9422 140.302 19.0189 139.449 18.3679C138.597 17.7169 137.561 17.3913 136.342 17.3913C135.099 17.3913 134.052 17.7287 133.199 18.4034C132.347 19.0781 131.702 20.0133 131.264 21.2088C130.826 22.4044 130.607 23.7893 130.607 25.3636C130.607 26.9498 130.826 28.3525 131.264 29.5717C131.714 30.7791 132.359 31.7261 133.199 32.4126C134.052 33.0874 135.099 33.4247 136.342 33.4247ZM178.374 19.5043L171.45 19.9304C171.331 19.3385 171.077 18.8059 170.686 18.3324C170.295 17.8471 169.781 17.4624 169.141 17.1783C168.514 16.8823 167.762 16.7344 166.886 16.7344C165.714 16.7344 164.726 16.983 163.921 17.4801C163.116 17.9654 162.714 18.6165 162.714 19.4332C162.714 20.0843 162.974 20.6347 163.495 21.0845C164.016 21.5343 164.91 21.8954 166.176 22.1676L171.112 23.1619C173.764 23.7064 175.741 24.5824 177.043 25.7898C178.345 26.9972 178.996 28.5833 178.996 30.5483C178.996 32.3357 178.469 33.9041 177.415 35.2536C176.374 36.603 174.942 37.6565 173.119 38.4141C171.308 39.1598 169.218 39.5327 166.851 39.5327C163.241 39.5327 160.364 38.781 158.222 37.2777C156.091 35.7625 154.842 33.7029 154.475 31.0987L161.915 30.7081C162.14 31.8089 162.684 32.6494 163.548 33.2294C164.412 33.7976 165.519 34.0817 166.869 34.0817C168.194 34.0817 169.26 33.8272 170.065 33.3182C170.881 32.7973 171.296 32.1286 171.308 31.3118C171.296 30.6252 171.006 30.063 170.438 29.625C169.869 29.1752 168.993 28.8319 167.81 28.5952L163.087 27.6541C160.423 27.1214 158.441 26.1982 157.138 24.8842C155.848 23.5703 155.203 21.8954 155.203 19.8594C155.203 18.1075 155.677 16.5982 156.624 15.3317C157.582 14.0651 158.926 13.0885 160.654 12.402C162.394 11.7154 164.43 11.3722 166.762 11.3722C170.207 11.3722 172.917 12.1001 174.894 13.5561C176.883 15.0121 178.043 16.9948 178.374 19.5043Z" fill="#242642"/>
<path d="M193.027 2.63636L200.485 28.2756H200.769L208.226 2.63636H219.377L207.374 39H193.879L181.877 2.63636H193.027ZM222.879 39V2.63636H238.575C241.274 2.63636 243.635 3.16903 245.659 4.23438C247.684 5.29971 249.258 6.79711 250.382 8.72656C251.507 10.656 252.069 12.911 252.069 15.4915C252.069 18.0956 251.489 20.3506 250.329 22.2564C249.181 24.1622 247.565 25.63 245.482 26.6598C243.41 27.6896 240.99 28.2045 238.22 28.2045H228.845V20.5341H236.231C237.391 20.5341 238.38 20.3329 239.196 19.9304C240.025 19.5161 240.658 18.9302 241.096 18.1726C241.546 17.415 241.771 16.5213 241.771 15.4915C241.771 14.4498 241.546 13.562 241.096 12.8281C240.658 12.0824 240.025 11.5142 239.196 11.1236C238.38 10.7211 237.391 10.5199 236.231 10.5199H232.751V39H222.879ZM287.154 2.63636V39H278.916L265.777 19.8949H265.564V39H255.691V2.63636H264.072L276.998 21.6705H277.282V2.63636H287.154Z" fill="#6974F6"/>
</svg>
