<?xml version="1.0" standalone="no"?>
<!DOCTYPE svg PUBLIC "-//W3C//DTD SVG 20010904//EN"
 "http://www.w3.org/TR/2001/REC-SVG-20010904/DTD/svg10.dtd">
<svg version="1.0" xmlns="http://www.w3.org/2000/svg"
 width="1200.000000pt" height="1200.000000pt" viewBox="0 0 1200.000000 1200.000000"
 preserveAspectRatio="xMidYMid meet">
<metadata>
Created by potrace 1.14, written by Peter Selinger 2001-2017
</metadata>
<g transform="translate(0.000000,1200.000000) scale(0.100000,-0.100000)"
fill="#000000" stroke="none">
<path d="M2 11008 l3 -992 135 -38 c165 -48 270 -64 465 -73 529 -25 1056 147
1465 479 170 137 372 368 485 554 21 34 39 62 41 62 1 0 23 -17 47 -37 120
-103 289 -206 419 -257 181 -71 314 -96 505 -96 257 0 431 39 648 144 199 97
356 217 475 364 36 44 71 81 78 81 8 1 44 -17 80 -38 91 -54 199 -96 329 -127
98 -24 120 -26 243 -21 165 7 289 36 425 101 97 46 207 117 284 183 l43 38
137 -135 c190 -189 361 -297 581 -368 185 -61 228 -67 440 -66 216 1 321 17
484 74 46 17 91 30 99 30 8 0 45 -25 81 -55 275 -225 684 -409 1014 -455 466
-65 879 -2 1287 195 174 84 322 179 460 295 l97 82 76 -16 c43 -8 106 -18 142
-22 36 -4 68 -8 72 -11 4 -2 -2 -28 -12 -58 -74 -214 -18 -441 145 -594 181
-168 429 -202 655 -87 l65 32 3 912 2 912 -6000 0 -6000 0 2 -992z"/>
<path d="M2861 6673 c-65 -32 -91 -121 -54 -184 19 -31 85 -69 121 -69 71 0
142 67 142 133 0 105 -110 168 -209 120z"/>
<path d="M1130 6000 l0 -620 135 0 135 0 0 255 0 255 250 0 250 0 0 110 0 110
-250 0 -250 0 0 145 0 145 275 0 275 0 0 110 0 110 -410 0 -410 0 0 -620z"/>
<path d="M5949 6388 c0 -185 -3 -229 -12 -214 -31 51 -92 106 -139 126 -44 19
-65 22 -137 18 -74 -3 -95 -9 -149 -38 -139 -74 -212 -224 -212 -434 0 -164
39 -282 123 -373 148 -161 394 -148 510 27 17 24 17 23 17 -48 l0 -72 130 0
130 0 0 620 0 620 -130 0 -130 0 -1 -232z m-109 -298 c73 -37 109 -121 110
-251 0 -179 -102 -294 -230 -259 -89 24 -139 101 -147 230 -7 92 8 162 46 222
48 76 140 99 221 58z"/>
<path d="M7310 6613 c0 -5 90 -284 202 -620 l202 -613 233 0 232 0 204 618
203 617 -189 3 c-105 1 -191 1 -193 -1 -2 -2 -58 -190 -124 -418 -66 -228
-124 -422 -128 -433 -6 -13 -38 83 -111 335 -56 195 -114 391 -127 437 l-25
82 -190 0 c-104 0 -189 -3 -189 -7z"/>
<path d="M8700 6000 l0 -620 170 0 170 0 0 178 0 179 148 6 c211 8 310 43 401
142 115 125 142 324 66 493 -50 111 -171 203 -303 231 -32 7 -171 11 -352 11
l-300 0 0 -620z m559 322 c57 -28 76 -63 76 -142 0 -82 -18 -113 -85 -147 -35
-18 -61 -23 -127 -23 l-83 0 0 171 0 172 92 -7 c55 -3 105 -13 127 -24z"/>
<path d="M9820 6000 l0 -620 170 0 170 0 2 320 3 319 220 -319 219 -320 143 0
143 0 0 620 0 620 -170 0 -170 0 -2 -324 -3 -325 -220 324 -220 325 -142 0
-143 0 0 -620z"/>
<path d="M2490 6304 c-48 -21 -89 -61 -111 -109 l-19 -40 0 78 0 77 -130 0
-130 0 0 -465 0 -465 135 0 135 0 0 290 c0 321 0 322 64 378 42 37 85 46 172
39 l64 -5 0 119 0 119 -72 0 c-42 -1 -88 -7 -108 -16z"/>
<path d="M3530 6301 c-70 -22 -95 -35 -148 -78 -196 -159 -215 -541 -37 -732
89 -95 211 -137 375 -129 192 10 321 91 376 234 9 24 15 46 12 49 -2 2 -57 8
-121 12 l-117 8 -25 -36 c-66 -101 -274 -87 -330 21 -9 17 -19 50 -24 75 l-8
45 316 2 316 3 -2 82 c-2 102 -15 168 -48 237 -50 107 -141 181 -259 212 -72
19 -209 17 -276 -5z m244 -204 c50 -28 76 -64 86 -116 l7 -41 -190 0 -190 0 6
37 c8 44 50 99 97 124 49 27 134 25 184 -4z"/>
<path d="M4693 6304 c-51 -18 -124 -82 -146 -126 l-17 -33 0 83 0 82 -125 0
-125 0 0 -465 0 -465 129 0 130 0 3 303 c3 281 4 304 23 336 35 59 67 76 145
76 79 0 113 -18 142 -76 16 -30 18 -68 18 -336 l0 -303 136 0 135 0 -3 348 -3
347 -28 60 c-37 79 -98 140 -165 165 -64 24 -186 26 -249 4z"/>
<path d="M6643 6305 c-111 -30 -184 -83 -219 -160 -43 -92 -26 -215 39 -283
51 -53 120 -82 271 -114 152 -31 199 -51 204 -87 7 -46 -7 -72 -51 -91 -88
-40 -204 -11 -239 60 l-18 34 -87 -2 c-49 -2 -107 -5 -129 -8 l-42 -6 10 -36
c25 -91 98 -175 181 -211 141 -60 352 -55 485 13 58 30 126 99 147 150 23 55
21 155 -4 204 -46 90 -126 131 -336 173 -129 25 -182 49 -191 85 -15 60 44
104 138 104 62 0 109 -24 138 -72 18 -30 21 -31 82 -30 35 2 87 5 116 8 61 7
65 19 31 94 -40 89 -128 156 -237 179 -72 15 -225 13 -289 -4z"/>
<path d="M2800 5845 l0 -465 130 0 130 0 0 465 0 465 -130 0 -130 0 0 -465z"/>
<path d="M495 2133 c-169 -20 -251 -37 -452 -95 l-43 -12 0 -1013 0 -1013
6000 0 6000 0 0 925 0 925 -47 30 c-223 142 -507 108 -698 -83 -151 -151 -202
-349 -142 -554 13 -46 22 -85 19 -88 -3 -3 -26 -5 -51 -5 -25 0 -89 -9 -141
-20 -52 -11 -96 -20 -97 -20 -2 0 -28 23 -59 51 -123 112 -306 235 -470 316
-346 173 -732 250 -1119 223 -193 -14 -294 -31 -441 -75 -297 -90 -529 -210
-754 -389 -36 -29 -71 -56 -78 -60 -7 -4 -53 6 -103 24 -168 58 -247 71 -455
77 -156 4 -206 2 -280 -12 -308 -60 -574 -206 -797 -436 l-116 -119 -96 74
c-159 125 -294 189 -477 227 -143 29 -364 23 -483 -14 -113 -35 -199 -71 -277
-117 -36 -22 -70 -40 -75 -40 -5 0 -25 22 -46 48 -66 88 -233 240 -336 307
-167 110 -320 173 -525 217 -135 29 -408 31 -536 4 -154 -33 -345 -104 -430
-160 -19 -13 -66 -44 -105 -69 -38 -25 -96 -68 -129 -97 -32 -28 -62 -48 -66
-43 -4 4 -26 40 -50 78 -207 336 -521 619 -885 796 -316 153 -613 221 -963
218 -92 -1 -180 -4 -197 -6z"/>
</g>
</svg>
